<svg xmlns="http://www.w3.org/2000/svg" xmlns:svg="http://www.w3.org/2000/svg" id="svg9" width="256" height="256" version="1.1" viewBox="0 0 256 256" xml:space="preserve"><g style="opacity:1;fill:none;fill-rule:nonzero;stroke:none;stroke-width:0;stroke-linecap:butt;stroke-linejoin:miter;stroke-miterlimit:10;stroke-dasharray:none" id="g9" transform="matrix(2.516109,0,0,2.516109,14.631686,14.631686)"><rect id="rect1" width="23.73" height="23.73" x="0" y="0" rx="0" ry="0" style="opacity:1;fill:#000;fill-rule:nonzero;stroke:none;stroke-width:1;stroke-linecap:butt;stroke-linejoin:miter;stroke-miterlimit:10;stroke-dasharray:none"/><rect id="rect2" width="23.73" height="23.73" x="33.14" y="0" rx="0" ry="0" style="opacity:1;fill:#000;fill-rule:nonzero;stroke:none;stroke-width:1;stroke-linecap:butt;stroke-linejoin:miter;stroke-miterlimit:10;stroke-dasharray:none"/><rect id="rect3" width="23.73" height="23.73" x="66.27" y="0" rx="0" ry="0" style="opacity:1;fill:#000;fill-rule:nonzero;stroke:none;stroke-width:1;stroke-linecap:butt;stroke-linejoin:miter;stroke-miterlimit:10;stroke-dasharray:none"/><rect id="rect4" width="23.73" height="23.73" x="0" y="33.14" rx="0" ry="0" style="opacity:1;fill:#000;fill-rule:nonzero;stroke:none;stroke-width:1;stroke-linecap:butt;stroke-linejoin:miter;stroke-miterlimit:10;stroke-dasharray:none"/><rect id="rect5" width="23.73" height="23.73" x="33.14" y="33.14" rx="0" ry="0" style="opacity:1;fill:#000;fill-rule:nonzero;stroke:none;stroke-width:1;stroke-linecap:butt;stroke-linejoin:miter;stroke-miterlimit:10;stroke-dasharray:none"/><rect id="rect6" width="23.73" height="23.73" x="66.27" y="33.14" rx="0" ry="0" style="opacity:1;fill:#000;fill-rule:nonzero;stroke:none;stroke-width:1;stroke-linecap:butt;stroke-linejoin:miter;stroke-miterlimit:10;stroke-dasharray:none"/><rect id="rect7" width="23.73" height="23.73" x="0" y="66.27" rx="0" ry="0" style="opacity:1;fill:#000;fill-rule:nonzero;stroke:none;stroke-width:1;stroke-linecap:butt;stroke-linejoin:miter;stroke-miterlimit:10;stroke-dasharray:none"/><rect id="rect8" width="23.73" height="23.73" x="33.14" y="66.27" rx="0" ry="0" style="opacity:1;fill:#000;fill-rule:nonzero;stroke:none;stroke-width:1;stroke-linecap:butt;stroke-linejoin:miter;stroke-miterlimit:10;stroke-dasharray:none"/><rect id="rect9" width="23.73" height="23.73" x="66.27" y="66.27" rx="0" ry="0" style="opacity:1;fill:#000;fill-rule:nonzero;stroke:none;stroke-width:1;stroke-linecap:butt;stroke-linejoin:miter;stroke-miterlimit:10;stroke-dasharray:none"/></g><path d="M 167.76789,166.19347 H 5.1488315 V 3.5744157 H 167.76789 Z M 23.959596,147.38271 H 148.95712 V 22.38518 H 23.959596 Z" style="fill:#20b8ff;fill-rule:nonzero;stroke:none;stroke-width:6.27026;stroke-linecap:butt;stroke-linejoin:miter;stroke-miterlimit:10;stroke-dasharray:none" id="path1" stroke-linecap="round"/></svg>