<svg xmlns="http://www.w3.org/2000/svg" xmlns:svg="http://www.w3.org/2000/svg" id="svg6" width="800" height="800" fill="#000" version="1.1" viewBox="0 0 32 32"><title id="title2">collapse</title><path id="path4" d="M11.493 8.757l-3.454-3.453-2.665 2.665 3.454 3.453-2.59 2.59 7.797 0.004-0.017-7.784-2.525 2.525zM23.172 11.422l3.454-3.453-2.665-2.665-3.454 3.453-2.525-2.525-0.017 7.784 7.797-0.004-2.59-2.59zM8.828 20.578l-3.454 3.453 2.665 2.665 3.454-3.453 2.526 2.525 0.017-7.784-7.797 0.004 2.589 2.59zM25.762 17.988l-7.797-0.004 0.017 7.784 2.525-2.525 3.454 3.453 2.665-2.665-3.454-3.453 2.59-2.59z" style="fill:#2b7c2b;fill-opacity:1"/><rect style="fill:#ffd42a;fill-opacity:1;stroke:#da6500;stroke-width:.65271;stroke-dasharray:none;stroke-opacity:1" id="rect3271" width="6.752" height="6.388" x="12.643" y="12.824"/><metadata id="metadata8243"/></svg>