<svg xmlns="http://www.w3.org/2000/svg" xmlns:svg="http://www.w3.org/2000/svg" id="svg6" aria-hidden="true" focusable="false" role="img" version="1.1" viewBox="0 0 14 14"><text xml:space="preserve" style="font-style:normal;font-weight:400;font-size:2.66667px;line-height:1.25;font-family:sans-serif;letter-spacing:0;word-spacing:0;fill:#000;fill-opacity:1;stroke:none" id="text1595" x=".391" y="2.844"><tspan id="tspan1700" x=".391" y="2.844">i000: title</tspan></text><text xml:space="preserve" style="font-style:normal;font-weight:400;font-size:2.66667px;line-height:1.25;font-family:sans-serif;letter-spacing:0;word-spacing:0;fill:#000;fill-opacity:1;stroke:none" id="text1595-8" x=".391" y="6.265"><tspan id="tspan1700-7" x=".391" y="6.265">i001: title</tspan></text><text xml:space="preserve" style="font-style:normal;font-weight:400;font-size:2.66667px;line-height:1.25;font-family:sans-serif;letter-spacing:0;word-spacing:0;fill:#000;fill-opacity:1;stroke:none" id="text1595-7" x=".391" y="9.687"><tspan id="tspan1700-6" x=".391" y="9.687">i002: title</tspan></text><text xml:space="preserve" style="font-style:normal;font-weight:400;font-size:2.66667px;line-height:1.25;font-family:sans-serif;letter-spacing:0;word-spacing:0;fill:#000;fill-opacity:1;stroke:none" id="text1595-86" x=".391" y="13.108"><tspan id="tspan1700-3" x=".391" y="13.108">i003: title</tspan></text><rect style="fill:#fca;stroke:#d45500;stroke-width:0;stroke-miterlimit:4;stroke-dasharray:none" id="rect955" width="3.678" height="6.381" x="4.026" y="2.461"/><rect style="fill:#fca;stroke:#d45500;stroke-width:0;stroke-miterlimit:4;stroke-dasharray:none" id="rect955-6" width="3.678" height="4.337" x="5.305" y="4.505"/><rect style="fill:#fca;stroke:#d45500;stroke-width:0;stroke-miterlimit:4;stroke-dasharray:none" id="rect955-68" width="3.678" height="6.381" x="7.743" y="4.939"/><rect style="fill:#fca;stroke:#d45500;stroke-width:0;stroke-miterlimit:4;stroke-dasharray:none" id="rect955-6-6" width="3.678" height="4.337" x="9.022" y="6.983"/><path id="path2-0" d="M 11.460937,4.5048077 H 9.6021631 V 3.8852163 L 7.7433894,2.0264423 H 3.40625 v 7.4350961 h 3.717548 v 2.4783646 h 6.195913 V 6.3635817 Z m 0,0.8762376 0.982539,0.9825364 H 11.460937 Z M 7.7433894,2.9026799 8.7259291,3.8852163 H 7.7433894 Z M 4.0258413,2.6460336 H 7.123798 V 4.5048077 H 8.982572 V 8.841947 H 4.0258413 Z M 12.700119,11.320312 H 7.7433894 V 9.4615384 H 9.6021631 V 5.124399 h 1.2391829 v 1.858774 h 1.858773 z" style="stroke-width:.826122;fill:#f60"/></svg>