<svg xmlns="http://www.w3.org/2000/svg" xmlns:svg="http://www.w3.org/2000/svg" xmlns:xlink="http://www.w3.org/1999/xlink" id="svg6" aria-hidden="true" focusable="false" role="img" version="1.1" viewBox="0 0 14 14"><defs id="defs10"><linearGradient id="BlueGreen" x1="0" x2="0" y1="20" y2="180" gradientTransform="matrix(0.01432918,0,0,0.01432918,4.3523275,6.6499205)" gradientUnits="userSpaceOnUse" xlink:href="#linearGradientStops"/><linearGradient id="linearGradientStops"><stop offset="0" style="stop-color:#0515fe" id="stop2"/><stop offset="1" style="stop-color:#2cab28" id="stop4"/></linearGradient></defs><g id="g447" transform="matrix(1.0801283,0,0,1.0678153,-0.58493595,-0.53618489)"><path id="path2" fill="#ffa000" d="M 10.672764,3.5860832 H 6.1208753 L 4.982903,2.4481109 H 2.1379723 c -0.6258847,0 -1.1379722,0.5120875 -1.1379722,1.1379723 v 6.8278338 c 0,0.625885 0.5120875,1.137972 1.1379722,1.137972 h 8.8192857 c 0.483638,0 0.853479,-0.369841 0.853479,-0.853479 V 4.7240554 c 0,-0.6258847 -0.512088,-1.1379722 -1.137973,-1.1379722 z"/><path id="path4" fill="#ffca28" d="M 11.867635,5.2930416 H 4.2147717 c -0.5405368,0 -1.024175,0.3982903 -1.1095229,0.9388271 L 2.1379723,11.551889 h 9.0184307 c 0.540536,0 1.024175,-0.39829 1.109523,-0.938827 L 12.977158,6.630159 C 13.119405,5.9473756 12.578868,5.2930416 11.867635,5.2930416 Z"/></g><g id="g1230" transform="matrix(0.63878459,0,-0.10465997,0.63878459,3.9343181,4.0174647)"><rect style="fill:#e6e6e6;fill-opacity:1;stroke:none;stroke-width:1.57074;stroke-opacity:1" id="rect10749-5" width="7.81" height="7.819" x="3.377" y="3.123" transform="matrix(1,0,-0.04725952,0.99888264,0,0)"/><rect style="fill:#696969;fill-opacity:.817241;stroke-width:.402" id="rect28089" width=".473" height="7.617" x="6.765" y="3.193"/><rect style="fill:#696969;fill-opacity:.817241;stroke-width:.402" id="rect28089-7" width=".473" height="7.617" x="6.647" y="-10.81" transform="rotate(90)"/><path style="fill:none;fill-opacity:.817241;stroke:red;stroke-width:.402;stroke-opacity:1" id="path32265" d="m 3.5245514,10.005941 c 0,0.09462 1.5139012,-0.5677129 1.5139012,-0.5677129 L 5.9846409,8.2081834 7.0727574,5.653475 8.2554928,4.4234302 10.195179,3.8557173"/><circle id="circle20-2" cx="8.246" cy="4.449" r=".583" style="fill:#f55;stroke-width:.19428"/><circle id="circle22-3" cx="7.056" cy="5.641" r=".583" style="fill:#f55;stroke-width:.19428"/><circle id="circle24-6" cx="6.008" cy="8.255" r=".583" style="fill:#f55;stroke-width:.19428"/><circle id="circle26-0" cx="5.008" cy="9.416" r=".583" style="fill:#f55;stroke-width:.19428"/><circle id="circle28-1" cx="3.534" cy="10.018" r=".583" style="fill:#f55;stroke-width:.19428"/><circle id="circle28-1-2" cx="10.148" cy="3.903" r=".583" style="fill:#f55;stroke-width:.19428"/></g></svg>