<svg xmlns="http://www.w3.org/2000/svg" xmlns:svg="http://www.w3.org/2000/svg" xmlns:xlink="http://www.w3.org/1999/xlink" id="svg14" aria-hidden="true" focusable="false" role="img" version="1.1" viewBox="0 0 14 14"><defs id="defs18"><linearGradient id="BlueGreen" x1="0" x2="0" y1="20" y2="180" gradientTransform="matrix(0.01229036,0,0,0.01229036,4.0293076,3.003469)" gradientUnits="userSpaceOnUse" xlink:href="#linearGradientStops"/><linearGradient id="linearGradientStops"><stop offset="0" style="stop-color:#0515fe" id="stop2"/><stop offset="1" style="stop-color:#2cab28" id="stop4"/></linearGradient></defs><g id="g973" transform="translate(-2.307e-4,-2.307e-4)"><path id="path2" fill="#4d4d4d" d="M 12.75,1.2692307 V 12.75 H 2.863782 L 1.2692307,11.155448 V 1.2692307 Z" style="fill:gray;stroke-width:.956731"/><path id="path4" fill="#fff" d="m 2.2259614,2.2259614 c 0,-0.1763573 0.1425529,-0.3189101 0.3189103,-0.3189101 h 8.9294863 c 0.176358,0 0.318911,0.1425528 0.318911,0.3189101 v 4.4647434 c 0,0.1763574 -0.142553,0.3189103 -0.318911,0.3189103 H 2.5448717 c -0.1763574,0 -0.3189103,-0.1425529 -0.3189103,-0.3189103 z" style="stroke-width:.956731"/><path id="path8" d="M 11.793269,12.75 V 9.560897 c 0,-0.3520769 -0.285744,-0.6378204 -0.637821,-0.6378204 H 6.3717946 c -0.3520769,0 -0.6378205,0.2857435 -0.6378205,0.6378204 V 12.75 Z" style="fill:#333;stroke-width:.956731"/><path id="path10" fill="#b0bec5" d="M 9.8798073,12.75 V 9.560897 c 0,-0.3520769 -0.2857436,-0.6378204 -0.6378206,-0.6378204 H 4.4583332 c -0.3520769,0 -0.6378205,0.2857435 -0.6378205,0.6378204 V 12.75 Z" style="stroke-width:.956731"/><path id="path12" d="M 6.3717946,12.112179 H 5.0961536 V 9.560897 h 1.275641 z" style="fill:#333;stroke-width:.956731"/></g><g id="g22811" transform="matrix(0.62768095,0,-0.02969522,0.62768095,2.9689011,0.32575786)"><rect style="fill:#0060ff;fill-opacity:1;stroke:none;stroke-width:.402;stroke-opacity:1" id="rect10749" width="2" height="2" x="2.6" y="2.6"/><rect style="fill:#ff7200;fill-opacity:1;stroke:none;stroke-width:.402;stroke-opacity:1" id="rect10749-7" width="2" height="2" x="2.6" y="4.6"/><rect style="fill:#ff4300;fill-opacity:1;stroke:none;stroke-width:.402;stroke-opacity:1" id="rect10749-1" width="2" height="2" x="4.6" y="2.6"/><rect style="fill:#fb0;fill-opacity:1;stroke:none;stroke-width:.402;stroke-opacity:1" id="rect10749-7-5" width="2" height="2" x="4.6" y="4.6"/><rect style="fill:#00acff;fill-opacity:1;stroke:none;stroke-width:.402;stroke-opacity:1" id="rect10749-8" width="2" height="2" x="6.6" y="2.6"/><rect style="fill:#ff3200;fill-opacity:1;stroke:none;stroke-width:.402;stroke-opacity:1" id="rect10749-7-0" width="2" height="2" x="6.6" y="4.6"/><rect style="fill:#0000fb;fill-opacity:1;stroke:none;stroke-width:.402;stroke-opacity:1" id="rect10749-1-4" width="2" height="2" x="8.6" y="2.6"/><rect style="fill:#28ffcf;fill-opacity:1;stroke:none;stroke-width:.402;stroke-opacity:1" id="rect10749-7-5-5" width="2" height="2" x="8.6" y="4.6"/><rect style="fill:#1fffd8;fill-opacity:1;stroke:none;stroke-width:.402;stroke-opacity:1" id="rect10749-84" width="2" height="2" x="2.6" y="6.6"/><rect style="fill:#b80000;fill-opacity:1;stroke:none;stroke-width:.402;stroke-opacity:1" id="rect10749-7-8" width="2" height="2" x="2.6" y="8.6"/><rect style="fill:#0000cf;fill-opacity:1;stroke:none;stroke-width:.402;stroke-opacity:1" id="rect10749-1-1" width="2" height="2" x="4.6" y="6.6"/><rect style="fill:#40ffb7;fill-opacity:1;stroke:none;stroke-width:.402;stroke-opacity:1" id="rect10749-7-5-4" width="2" height="2" x="4.6" y="8.6"/><rect style="fill:#c4ff33;fill-opacity:1;stroke:none;stroke-width:.402;stroke-opacity:1" id="rect10749-8-8" width="2" height="2" x="6.6" y="6.6"/><rect style="fill:#910000;fill-opacity:1;stroke:none;stroke-width:.402;stroke-opacity:1" id="rect10749-7-0-4" width="2" height="2" x="6.6" y="8.6"/><rect style="fill:#00f;fill-opacity:1;stroke:none;stroke-width:.402;stroke-opacity:1" id="rect10749-1-4-3" width="2" height="2" x="8.6" y="6.6"/><rect style="fill:#44ffb3;fill-opacity:1;stroke:none;stroke-width:.402;stroke-opacity:1" id="rect10749-7-5-5-3" width="2" height="2" x="8.6" y="8.6"/></g></svg>