<svg xmlns="http://www.w3.org/2000/svg" xmlns:svg="http://www.w3.org/2000/svg" xmlns:xlink="http://www.w3.org/1999/xlink" id="svg6" aria-hidden="true" focusable="false" role="img" version="1.1" viewBox="0 0 14 14"><defs id="defs10"><linearGradient id="BlueGreen" x1="0" x2="0" y1="20" y2="180" gradientTransform="matrix(0.01432918,0,0,0.01432918,4.3523275,6.6499205)" gradientUnits="userSpaceOnUse" xlink:href="#linearGradientStops"/><linearGradient id="linearGradientStops"><stop offset="0" style="stop-color:#0515fe" id="stop2"/><stop offset="1" style="stop-color:#2cab28" id="stop4"/></linearGradient></defs><g id="g447" transform="matrix(1.0801283,0,0,1.0678153,-0.58493595,-0.53618489)"><path id="path2" fill="#ffa000" d="M 10.672764,3.5860832 H 6.1208753 L 4.982903,2.4481109 H 2.1379723 c -0.6258847,0 -1.1379722,0.5120875 -1.1379722,1.1379723 v 6.8278338 c 0,0.625885 0.5120875,1.137972 1.1379722,1.137972 h 8.8192857 c 0.483638,0 0.853479,-0.369841 0.853479,-0.853479 V 4.7240554 c 0,-0.6258847 -0.512088,-1.1379722 -1.137973,-1.1379722 z"/><path id="path4" fill="#ffca28" d="M 11.867635,5.2930416 H 4.2147717 c -0.5405368,0 -1.024175,0.3982903 -1.1095229,0.9388271 L 2.1379723,11.551889 h 9.0184307 c 0.540536,0 1.024175,-0.39829 1.109523,-0.938827 L 12.977158,6.630159 C 13.119405,5.9473756 12.578868,5.2930416 11.867635,5.2930416 Z"/></g><g id="g22811" transform="matrix(0.62372923,0,-0.14189998,0.62372923,4.6016056,4.3883135)"><rect style="fill:#0060ff;fill-opacity:1;stroke:none;stroke-width:.402;stroke-opacity:1" id="rect10749" width="2" height="2" x="2.6" y="2.6"/><rect style="fill:#ff7200;fill-opacity:1;stroke:none;stroke-width:.402;stroke-opacity:1" id="rect10749-7" width="2" height="2" x="2.6" y="4.6"/><rect style="fill:#ff4300;fill-opacity:1;stroke:none;stroke-width:.402;stroke-opacity:1" id="rect10749-1" width="2" height="2" x="4.6" y="2.6"/><rect style="fill:#fb0;fill-opacity:1;stroke:none;stroke-width:.402;stroke-opacity:1" id="rect10749-7-5" width="2" height="2" x="4.6" y="4.6"/><rect style="fill:#00acff;fill-opacity:1;stroke:none;stroke-width:.402;stroke-opacity:1" id="rect10749-8" width="2" height="2" x="6.6" y="2.6"/><rect style="fill:#ff3200;fill-opacity:1;stroke:none;stroke-width:.402;stroke-opacity:1" id="rect10749-7-0" width="2" height="2" x="6.6" y="4.6"/><rect style="fill:#0000fb;fill-opacity:1;stroke:none;stroke-width:.402;stroke-opacity:1" id="rect10749-1-4" width="2" height="2" x="8.6" y="2.6"/><rect style="fill:#28ffcf;fill-opacity:1;stroke:none;stroke-width:.402;stroke-opacity:1" id="rect10749-7-5-5" width="2" height="2" x="8.6" y="4.6"/><rect style="fill:#1fffd8;fill-opacity:1;stroke:none;stroke-width:.402;stroke-opacity:1" id="rect10749-84" width="2" height="2" x="2.6" y="6.6"/><rect style="fill:#b80000;fill-opacity:1;stroke:none;stroke-width:.402;stroke-opacity:1" id="rect10749-7-8" width="2" height="2" x="2.6" y="8.6"/><rect style="fill:#0000cf;fill-opacity:1;stroke:none;stroke-width:.402;stroke-opacity:1" id="rect10749-1-1" width="2" height="2" x="4.6" y="6.6"/><rect style="fill:#40ffb7;fill-opacity:1;stroke:none;stroke-width:.402;stroke-opacity:1" id="rect10749-7-5-4" width="2" height="2" x="4.6" y="8.6"/><rect style="fill:#c4ff33;fill-opacity:1;stroke:none;stroke-width:.402;stroke-opacity:1" id="rect10749-8-8" width="2" height="2" x="6.6" y="6.6"/><rect style="fill:#910000;fill-opacity:1;stroke:none;stroke-width:.402;stroke-opacity:1" id="rect10749-7-0-4" width="2" height="2" x="6.6" y="8.6"/><rect style="fill:#00f;fill-opacity:1;stroke:none;stroke-width:.402;stroke-opacity:1" id="rect10749-1-4-3" width="2" height="2" x="8.6" y="6.6"/><rect style="fill:#44ffb3;fill-opacity:1;stroke:none;stroke-width:.402;stroke-opacity:1" id="rect10749-7-5-5-3" width="2" height="2" x="8.6" y="8.6"/></g></svg>