<svg xmlns="http://www.w3.org/2000/svg" xmlns:svg="http://www.w3.org/2000/svg" xmlns:xlink="http://www.w3.org/1999/xlink" id="svg14" aria-hidden="true" focusable="false" role="img" version="1.1" viewBox="0 0 14 14"><defs id="defs18"><linearGradient id="BlueGreen" x1="0" x2="0" y1="20" y2="180" gradientTransform="matrix(0.01229036,0,0,0.01229036,4.0293076,3.003469)" gradientUnits="userSpaceOnUse" xlink:href="#linearGradientStops"/><linearGradient id="linearGradientStops"><stop offset="0" style="stop-color:#0515fe" id="stop2"/><stop offset="1" style="stop-color:#2cab28" id="stop4"/></linearGradient><linearGradient id="BlueGreen-3" x1="0" x2="0" y1="20" y2="180" gradientTransform="matrix(0.0153819,0,0,0.0153819,3.2765568,2.3648137)" gradientUnits="userSpaceOnUse" xlink:href="#linearGradientStops"/></defs><g id="g973" transform="translate(-2.307e-4,-2.307e-4)"><path id="path2" fill="#4d4d4d" d="M 12.75,1.2692307 V 12.75 H 2.863782 L 1.2692307,11.155448 V 1.2692307 Z" style="fill:gray;stroke-width:.956731"/><path id="path4" fill="#fff" d="m 2.2259614,2.2259614 c 0,-0.1763573 0.1425529,-0.3189101 0.3189103,-0.3189101 h 8.9294863 c 0.176358,0 0.318911,0.1425528 0.318911,0.3189101 v 4.4647434 c 0,0.1763574 -0.142553,0.3189103 -0.318911,0.3189103 H 2.5448717 c -0.1763574,0 -0.3189103,-0.1425529 -0.3189103,-0.3189103 z" style="stroke-width:.956731"/><path id="path8" d="M 11.793269,12.75 V 9.560897 c 0,-0.3520769 -0.285744,-0.6378204 -0.637821,-0.6378204 H 6.3717946 c -0.3520769,0 -0.6378205,0.2857435 -0.6378205,0.6378204 V 12.75 Z" style="fill:#333;stroke-width:.956731"/><path id="path10" fill="#b0bec5" d="M 9.8798073,12.75 V 9.560897 c 0,-0.3520769 -0.2857436,-0.6378204 -0.6378206,-0.6378204 H 4.4583332 c -0.3520769,0 -0.6378205,0.2857435 -0.6378205,0.6378204 V 12.75 Z" style="stroke-width:.956731"/><path id="path12" d="M 6.3717946,12.112179 H 5.0961536 V 9.560897 h 1.275641 z" style="fill:#333;stroke-width:.956731"/></g><path style="fill:url(#BlueGreen-3);stroke-width:.0153819" id="path10-2" d="M 5.8314864,2.4304153 A 0.36920219,0.36920219 0 0 0 5.4678781,2.8048078 V 4.1166546 H 4.0909272 V 2.8099751 A 0.36920219,0.36920219 0 0 0 3.716206,2.435583 0.36920219,0.36920219 0 0 0 3.3525985,2.8099751 v 3.3739804 a 0.36920219,0.36920219 0 1 0 0.7383287,0 V 4.8549853 h 2.1152797 v -1.664188 c 1.1214386,0.1059556 1.5573469,0.749 1.5521874,1.3335974 -0.00572,0.6447505 -0.5436979,1.348515 -1.9424423,1.3035859 A 0.36920219,0.36920219 0 1 0 5.792232,6.5659208 C 6.8192654,6.598908 7.5978112,6.2355528 8.0500054,5.7006892 v 0.5136111 a 0.36920219,0.36920219 0 1 0 0.7383296,0 v -1.340809 h 1.22986 a 0.36920219,0.36920219 0 1 0 0,-0.7383303 H 8.7883529 V 3.1739731 h 1.7271561 a 0.36920219,0.36920219 0 1 0 0,-0.7383303 H 5.8973978 a 0.36920219,0.36920219 0 0 0 -0.065922,-0.00522 z"/></svg>