<svg xmlns="http://www.w3.org/2000/svg" xmlns:svg="http://www.w3.org/2000/svg" xmlns:xlink="http://www.w3.org/1999/xlink" id="svg14" aria-hidden="true" focusable="false" role="img" version="1.1" viewBox="0 0 14 14"><defs id="defs18"><linearGradient id="BlueGreen" x1="0" x2="0" y1="20" y2="180" gradientTransform="matrix(0.01229036,0,0,0.01229036,4.0293076,3.003469)" gradientUnits="userSpaceOnUse" xlink:href="#linearGradientStops"/><linearGradient id="linearGradientStops"><stop offset="0" style="stop-color:#0515fe" id="stop2"/><stop offset="1" style="stop-color:#2cab28" id="stop4"/></linearGradient></defs><g id="g973" transform="translate(-2.307e-4,-2.307e-4)"><path id="path2" fill="#4d4d4d" d="M 12.75,1.2692307 V 12.75 H 2.863782 L 1.2692307,11.155448 V 1.2692307 Z" style="fill:gray;stroke-width:.956731"/><path id="path4" fill="#fff" d="m 2.2259614,2.2259614 c 0,-0.1763573 0.1425529,-0.3189101 0.3189103,-0.3189101 h 8.9294863 c 0.176358,0 0.318911,0.1425528 0.318911,0.3189101 v 4.4647434 c 0,0.1763574 -0.142553,0.3189103 -0.318911,0.3189103 H 2.5448717 c -0.1763574,0 -0.3189103,-0.1425529 -0.3189103,-0.3189103 z" style="stroke-width:.956731"/><path id="path8" d="M 11.793269,12.75 V 9.560897 c 0,-0.3520769 -0.285744,-0.6378204 -0.637821,-0.6378204 H 6.3717946 c -0.3520769,0 -0.6378205,0.2857435 -0.6378205,0.6378204 V 12.75 Z" style="fill:#333;stroke-width:.956731"/><path id="path10" fill="#b0bec5" d="M 9.8798073,12.75 V 9.560897 c 0,-0.3520769 -0.2857436,-0.6378204 -0.6378206,-0.6378204 H 4.4583332 c -0.3520769,0 -0.6378205,0.2857435 -0.6378205,0.6378204 V 12.75 Z" style="stroke-width:.956731"/><path id="path12" d="M 6.3717946,12.112179 H 5.0961536 V 9.560897 h 1.275641 z" style="fill:#333;stroke-width:.956731"/></g><g id="g1230" transform="matrix(0.6428317,0,0,0.6428317,2.6407995,-0.0474401)"><rect style="fill:#e6e6e6;fill-opacity:1;stroke:none;stroke-width:1.57074;stroke-opacity:1" id="rect10749-5" width="7.81" height="7.819" x="3.377" y="3.123" transform="matrix(1,0,-0.04725952,0.99888264,0,0)"/><rect style="fill:#696969;fill-opacity:.817241;stroke-width:.402" id="rect28089" width=".473" height="7.617" x="6.765" y="3.193"/><rect style="fill:#696969;fill-opacity:.817241;stroke-width:.402" id="rect28089-7" width=".473" height="7.617" x="6.647" y="-10.81" transform="rotate(90)"/><path style="fill:none;fill-opacity:.817241;stroke:red;stroke-width:.402;stroke-opacity:1" id="path32265" d="m 3.5245514,10.005941 c 0,0.09462 1.5139012,-0.5677129 1.5139012,-0.5677129 L 5.9846409,8.2081834 7.0727574,5.653475 8.2554928,4.4234302 10.195179,3.8557173"/><circle id="circle20-2" cx="8.246" cy="4.449" r=".583" style="fill:#f55;stroke-width:.19428"/><circle id="circle22-3" cx="7.056" cy="5.641" r=".583" style="fill:#f55;stroke-width:.19428"/><circle id="circle24-6" cx="6.008" cy="8.255" r=".583" style="fill:#f55;stroke-width:.19428"/><circle id="circle26-0" cx="5.008" cy="9.416" r=".583" style="fill:#f55;stroke-width:.19428"/><circle id="circle28-1" cx="3.534" cy="10.018" r=".583" style="fill:#f55;stroke-width:.19428"/><circle id="circle28-1-2" cx="10.148" cy="3.903" r=".583" style="fill:#f55;stroke-width:.19428"/></g></svg>