<svg xmlns="http://www.w3.org/2000/svg" xmlns:svg="http://www.w3.org/2000/svg" id="svg12" aria-hidden="true" focusable="false" role="img" version="1.1" viewBox="0 0 14 14" xml:space="preserve"><path style="fill:#37474f;fill-opacity:1;stroke-width:.0499186" id="path468" d="M 11.603869,12.127256 C 8.9548968,12.1668 3.594453,12.146305 3.4323153,12.096014 2.8000908,11.899906 2.0577058,11.158183 1.8007394,10.465894 1.6862792,10.157531 1.6918551,9.8866897 1.8899974,6.1288758 2.0801388,2.5227926 2.1144896,2.1080562 2.2324527,1.9941102 2.3514585,1.8794971 2.7393353,1.8661327 6.3767717,1.8532242 c 3.7790143,-0.01341 4.0320983,-0.0061 4.3370693,0.1253306 0.681468,0.2936835 1.382427,1.0679658 1.550284,1.7124248 0.0337,0.129404 -0.03084,1.9300465 -0.150169,4.1891652 -0.175211,3.3172892 -0.22825,3.9853222 -0.325838,4.1041532 -0.06411,0.07807 -0.14691,0.142503 -0.184203,0.142984 z"/><g id="g22811" transform="matrix(0.97634529,0,-0.04619032,0.97634529,0.79214309,0.58190579)"><rect style="fill:#0060ff;fill-opacity:1;stroke:none;stroke-width:.402;stroke-opacity:1" id="rect10749" width="2" height="2" x="2.6" y="2.6"/><rect style="fill:#ff7200;fill-opacity:1;stroke:none;stroke-width:.402;stroke-opacity:1" id="rect10749-7" width="2" height="2" x="2.6" y="4.6"/><rect style="fill:#ff4300;fill-opacity:1;stroke:none;stroke-width:.402;stroke-opacity:1" id="rect10749-1" width="2" height="2" x="4.6" y="2.6"/><rect style="fill:#fb0;fill-opacity:1;stroke:none;stroke-width:.402;stroke-opacity:1" id="rect10749-7-5" width="2" height="2" x="4.6" y="4.6"/><rect style="fill:#00acff;fill-opacity:1;stroke:none;stroke-width:.402;stroke-opacity:1" id="rect10749-8" width="2" height="2" x="6.6" y="2.6"/><rect style="fill:#ff3200;fill-opacity:1;stroke:none;stroke-width:.402;stroke-opacity:1" id="rect10749-7-0" width="2" height="2" x="6.6" y="4.6"/><rect style="fill:#0000fb;fill-opacity:1;stroke:none;stroke-width:.402;stroke-opacity:1" id="rect10749-1-4" width="2" height="2" x="8.6" y="2.6"/><rect style="fill:#28ffcf;fill-opacity:1;stroke:none;stroke-width:.402;stroke-opacity:1" id="rect10749-7-5-5" width="2" height="2" x="8.6" y="4.6"/><rect style="fill:#1fffd8;fill-opacity:1;stroke:none;stroke-width:.402;stroke-opacity:1" id="rect10749-84" width="2" height="2" x="2.6" y="6.6"/><rect style="fill:#b80000;fill-opacity:1;stroke:none;stroke-width:.402;stroke-opacity:1" id="rect10749-7-8" width="2" height="2" x="2.6" y="8.6"/><rect style="fill:#0000cf;fill-opacity:1;stroke:none;stroke-width:.402;stroke-opacity:1" id="rect10749-1-1" width="2" height="2" x="4.6" y="6.6"/><rect style="fill:#40ffb7;fill-opacity:1;stroke:none;stroke-width:.402;stroke-opacity:1" id="rect10749-7-5-4" width="2" height="2" x="4.6" y="8.6"/><rect style="fill:#c4ff33;fill-opacity:1;stroke:none;stroke-width:.402;stroke-opacity:1" id="rect10749-8-8" width="2" height="2" x="6.6" y="6.6"/><rect style="fill:#910000;fill-opacity:1;stroke:none;stroke-width:.402;stroke-opacity:1" id="rect10749-7-0-4" width="2" height="2" x="6.6" y="8.6"/><rect style="fill:#00f;fill-opacity:1;stroke:none;stroke-width:.402;stroke-opacity:1" id="rect10749-1-4-3" width="2" height="2" x="8.6" y="6.6"/><rect style="fill:#44ffb3;fill-opacity:1;stroke:none;stroke-width:.402;stroke-opacity:1" id="rect10749-7-5-5-3" width="2" height="2" x="8.6" y="8.6"/></g></svg>