<svg xmlns="http://www.w3.org/2000/svg" xmlns:svg="http://www.w3.org/2000/svg" id="svg6" aria-hidden="true" focusable="false" role="img" version="1.1" viewBox="0 0 14 14"><g id="g882" transform="matrix(0.80453486,0,0,0.80453486,1.0946557,1.368256)"><path id="path2" d="m 0.40773791,0.03945634 c -0.29008998,0 -0.52539061,0.1689063 -0.52539061,0.3789063 V 13.66055 c 0,0.2101 0.23530063,0.378906 0.52539061,0.378906 H 5.2026598 c 0.29019,0 0.5234375,-0.168806 0.5234375,-0.378906 V 0.41836264 c 0,-0.21 -0.2332475,-0.3789063 -0.5234375,-0.3789063 z M 1.0932848,1.0980501 h 3.421875 v 3.2148438 h -3.421875 z m 0,4.2832032 h 3.421875 V 8.596097 h -3.421875 z m 0,4.2832026 h 3.421875 v 3.2167971 h -3.421875 z" style="fill:#999"/><path style="fill:#cfc;fill-opacity:1;stroke:#d45500;stroke-width:.0129196" id="path1898" d="M 0.56089341,2.5672787 V 0.5737384 H 2.8042224 5.0475512 V 2.5672787 4.5608189 H 2.8042224 0.56089341 Z"/><path style="fill:#e6cccc;fill-opacity:1;stroke:#d45500;stroke-width:.0129539" id="path1974" d="M 0.56076251,6.9646774 V 4.9711544 H 2.8042224 5.0476821 v 1.993523 1.9935231 H 2.8042224 0.56076251 Z"/><path style="fill:#f0f0f0;fill-opacity:1;stroke:#d45500;stroke-width:.0129192" id="path2050" d="M 0.56104805,11.362075 V 9.3685358 H 2.8042223 5.0473965 v 1.9935392 1.99354 H 2.8042223 0.56104805 Z"/></g><g id="g1016" transform="matrix(0.81634845,0,0,0.81634845,1.5232716,1.2082185)"><rect style="fill:#acf;stroke:#d45500;stroke-width:0;stroke-miterlimit:4;stroke-dasharray:none" id="rect991" width="6.779" height="6.927" x="4.633" y="3.455"/><rect style="fill:#acf;stroke:#d45500;stroke-width:0;stroke-miterlimit:4;stroke-dasharray:none" id="rect991-2" width="4.423" height="4.116" x="7.767" y="6.566"/><path id="path2-1" d="M 11.125783,9.6749069 H 8.8175127 V 8.976419 h 2.3082703 z m -7.9e-4,-1.290258 H 8.8174888 V 7.6861608 H 11.124993 Z M 11.422987,4.9411872 H 6.9970833 V 11.367325 H 12.875567 V 6.3924861 Z m 0.521272,5.4948288 H 7.9284152 V 5.8724959 h 2.7960868 v 1.0554847 h 1.219757 z M 6.1687195,9.625 H 4.6328125 V 3.4551137 h 1.4047351 l 0.58013,0.5820774 H 8.555959 L 9.1438464,3.4551137 h 1.3329326 v 0.7410727 h 0.942936 V 2.5276869 h -1.326404 c -0.2116981,0 -0.4147851,-0.083776 -0.5649271,-0.2330081 L 9.021597,1.7904027 H 6.111258 L 5.6044951,2.2946325 C 5.4543609,2.4438888 5.2512902,2.527663 5.0395764,2.527663 H 3.7131486 v 8.040268 h 2.4555709 z" style="fill:#06f;stroke-width:.798077"/></g></svg>