<svg xmlns="http://www.w3.org/2000/svg" xmlns:svg="http://www.w3.org/2000/svg" id="svg6" aria-hidden="true" focusable="false" role="img" version="1.1" viewBox="0 0 14 14"><g id="g882" transform="matrix(0.80453486,0,0,0.80453486,1.0946557,1.368256)"><path id="path2" d="m 0.40773791,0.03945634 c -0.29008998,0 -0.52539061,0.1689063 -0.52539061,0.3789063 V 13.66055 c 0,0.2101 0.23530063,0.378906 0.52539061,0.378906 H 5.2026598 c 0.29019,0 0.5234375,-0.168806 0.5234375,-0.378906 V 0.41836264 c 0,-0.21 -0.2332475,-0.3789063 -0.5234375,-0.3789063 z M 1.0932848,1.0980501 h 3.421875 v 3.2148438 h -3.421875 z m 0,4.2832032 h 3.421875 V 8.596097 h -3.421875 z m 0,4.2832026 h 3.421875 v 3.2167971 h -3.421875 z" style="fill:#999"/><path style="fill:#cfc;fill-opacity:1;stroke:#d45500;stroke-width:.0129196" id="path1898" d="M 0.56089341,2.5672787 V 0.5737384 H 2.8042224 5.0475512 V 2.5672787 4.5608189 H 2.8042224 0.56089341 Z"/><path style="fill:#e6cccc;fill-opacity:1;stroke:#d45500;stroke-width:.0129539" id="path1974" d="M 0.56076251,6.9646774 V 4.9711544 H 2.8042224 5.0476821 v 1.993523 1.9935231 H 2.8042224 0.56076251 Z"/><path style="fill:#f0f0f0;fill-opacity:1;stroke:#d45500;stroke-width:.0129192" id="path2050" d="M 0.56104805,11.362075 V 9.3685358 H 2.8042223 5.0473965 v 1.9935392 1.99354 H 2.8042223 0.56104805 Z"/></g><g id="g8" fill="#ff5722" transform="matrix(0.93746091,0,0,0.93746091,0.36209356,0.40411976)"><path id="path4" d="M 12.355,7 9.145,9.7 V 4.3 Z"/><path id="path6" d="m 3.745,6.1 h 6.9 v 1.8 h -6.9 z"/></g></svg>