<svg xmlns="http://www.w3.org/2000/svg" xmlns:svg="http://www.w3.org/2000/svg" id="svg12" aria-hidden="true" focusable="false" role="img" version="1.1" viewBox="0 0 14 14"><ellipse style="fill:#fff;stroke:none;stroke-width:2;stroke-linecap:round" id="path2" cx="-7" cy="-7" rx="3.496" ry="3.797" transform="scale(-1)"/><g style="fill:none;fill-rule:nonzero;stroke:none;stroke-width:0;stroke-linecap:butt;stroke-linejoin:miter;stroke-miterlimit:10;stroke-dasharray:none" id="g2" transform="matrix(-0.13526215,0,0,-0.13526215,13.086797,13.086797)"><path d="M 0,45 C 0,69.853 20.147,90 45,90 69.853,90 90,69.853 90,45 90,20.147 69.853,0 45,0 20.147,0 0,20.147 0,45 Z M 46.209,21.459 64.575,39.825 c 0.668,0.668 0.668,1.75 0,2.418 l -6.055,6.055 c -0.668,0.668 -1.751,0.668 -2.418,0 l -5.11,-5.111 v 24.144 c 0,0.944 -0.766,1.71 -1.71,1.71 h -8.563 c -0.944,0 -1.71,-0.766 -1.71,-1.71 V 43.187 l -5.111,5.111 c -0.668,0.668 -1.751,0.668 -2.418,0 l -6.055,-6.055 c -0.668,-0.668 -0.668,-1.751 0,-2.418 L 43.791,21.459 c 0.668,-0.668 1.751,-0.668 2.418,0 z" style="opacity:1;fill:#5ba0d0;fill-rule:nonzero;stroke:none;stroke-width:1;stroke-linecap:butt;stroke-linejoin:miter;stroke-miterlimit:10;stroke-dasharray:none" id="path1" stroke-linecap="round"/></g></svg>