<svg xmlns="http://www.w3.org/2000/svg" xmlns:svg="http://www.w3.org/2000/svg" id="svg12" aria-hidden="true" focusable="false" role="img" version="1.1" viewBox="0 0 14 14"><path style="fill:#37474f;fill-opacity:1;stroke-width:.0499186" id="path468" d="M 11.675765,12.128782 C 9.0267931,12.168326 3.6663496,12.147831 3.5042119,12.09754 2.8719874,11.901432 2.1296024,11.159709 1.872636,10.46742 1.7581758,10.159057 1.7637517,9.8882153 1.961894,6.1304014 2.1520354,2.5243182 2.1863862,2.1095818 2.3043493,1.9956358 2.4233551,1.8810227 2.8112319,1.8676583 6.4486683,1.8547498 c 3.7790137,-0.01341 4.0320977,-0.0061 4.3370687,0.1253306 0.681469,0.2936835 1.382427,1.0679658 1.550284,1.7124248 0.0337,0.129404 -0.03084,1.9300465 -0.150169,4.1891652 -0.175211,3.3172896 -0.22825,3.9853226 -0.325837,4.1041536 -0.06411,0.07807 -0.146911,0.142503 -0.184203,0.142984 z"/><rect style="fill:#e6e6e6;fill-opacity:1;stroke:none;stroke-width:1.57074;stroke-opacity:1" id="rect10749-5" width="7.81" height="7.819" x="3.377" y="3.123" transform="matrix(1,0,-0.04725952,0.99888264,0,0)"/><rect style="fill:#696969;fill-opacity:.817241;stroke-width:.402" id="rect28089" width=".473" height="7.617" x="6.765" y="3.193"/><rect style="fill:#696969;fill-opacity:.817241;stroke-width:.402" id="rect28089-7" width=".473" height="7.617" x="6.647" y="-10.81" transform="rotate(90)"/><g id="g3798" transform="matrix(0.54267566,0,0,0.54267566,6.7985787,6.8695433)"><circle id="circle2915" cx="7" cy="7" r="6" fill="#4caf50"/><g id="g2921" fill="#fff"><path id="path2917" d="M 6.1428571,4.1428571 H 7.8571429 V 9.8571429 H 6.1428571 Z"/><path id="path2919" d="M 4.1428571,6.1428571 H 9.8571429 V 7.8571429 H 4.1428571 Z"/></g></g><path style="fill:none;fill-opacity:.817241;stroke-width:.402;stroke:red;stroke-opacity:1" id="path32265" d="m 3.5245514,10.005941 c 0,0.09462 1.5139012,-0.5677129 1.5139012,-0.5677129 L 5.9846409,8.2081834 7.0727574,5.653475 8.2554928,4.4234302 10.195179,3.8557173"/><circle id="circle20-2" cx="8.246" cy="4.449" r=".583" style="fill:#f55;stroke-width:.19428"/><circle id="circle22-3" cx="7.056" cy="5.641" r=".583" style="fill:#f55;stroke-width:.19428"/><circle id="circle24-6" cx="6.008" cy="8.255" r=".583" style="fill:#f55;stroke-width:.19428"/><circle id="circle26-0" cx="5.008" cy="9.416" r=".583" style="fill:#f55;stroke-width:.19428"/><circle id="circle28-1" cx="3.534" cy="10.018" r=".583" style="fill:#f55;stroke-width:.19428"/><circle id="circle28-1-2" cx="10.148" cy="3.903" r=".583" style="fill:#f55;stroke-width:.19428"/></svg>