<svg xmlns="http://www.w3.org/2000/svg" xmlns:svg="http://www.w3.org/2000/svg" id="svg2" width="100%" height="100%" aria-hidden="true" focusable="false" role="img" version="1.1" viewBox="0 0 14 14"><metadata id="metadata36"/><circle style="fill:#00f" id="circle20" cx="8" cy="20" r="3" d="m 11,20 c 0,1.656854 -1.3431458,3 -3,3 -1.6568542,0 -3,-1.343146 -3,-3 0,-1.656854 1.3431458,-3 3,-3 1.6568542,0 3,1.343146 3,3 z" transform="matrix(0.31579,0,0,0.31579,-0.57894728,-0.57894728)"/><circle style="fill:#00f" id="circle22" cx="16" cy="22" r="3" d="m 19,22 c 0,1.656854 -1.343146,3 -3,3 -1.656854,0 -3,-1.343146 -3,-3 0,-1.656854 1.343146,-3 3,-3 1.656854,0 3,1.343146 3,3 z" transform="matrix(0.31579,0,0,0.31579,-0.57894728,3.4210527)"/><circle style="fill:#00f" id="circle24" cx="24" cy="15" r="3" d="m 27,15 c 0,1.656854 -1.343146,3 -3,3 -1.656854,0 -3,-1.343146 -3,-3 0,-1.656854 1.343146,-3 3,-3 1.656854,0 3,1.343146 3,3 z" transform="matrix(0.31579,0,0,0.31579,-0.57894728,1.4210527)"/><circle style="fill:#00f" id="circle26" cx="32" cy="20" r="3" d="m 35,20 c 0,1.656854 -1.343146,3 -3,3 -1.656854,0 -3,-1.343146 -3,-3 0,-1.656854 1.343146,-3 3,-3 1.656854,0 3,1.343146 3,3 z" transform="matrix(0.31579,0,0,0.31579,-0.57894728,1.4210527)"/><circle style="fill:#00f" id="circle28" cx="40" cy="8" r="3" d="m 43,8 c 0,1.6568542 -1.343146,3 -3,3 -1.656854,0 -3,-1.3431458 -3,-3 0,-1.6568542 1.343146,-3 3,-3 1.656854,0 3,1.3431458 3,3 z" transform="matrix(0.31579,0,0,0.31579,-0.57894728,-0.57894728)"/><rect style="fill:#00f;fill-opacity:1;stroke:#f60;stroke-width:0;stroke-linecap:butt;stroke-linejoin:miter;stroke-miterlimit:4;stroke-opacity:1;stroke-dasharray:none" id="rect3001" width="8.186" height=".89" x="-14" y="1.502" transform="matrix(0,-1,1,0,0,0)"/><rect style="fill:#00f;fill-opacity:1;stroke:#f60;stroke-width:0;stroke-linecap:butt;stroke-linejoin:miter;stroke-miterlimit:4;stroke-opacity:1;stroke-dasharray:none" id="rect3001-1" width="3.619" height=".89" x="-14" y="4.029" transform="matrix(0,-1,1,0,0,0)"/><rect style="fill:#00f;fill-opacity:1;stroke:#f60;stroke-width:0;stroke-linecap:butt;stroke-linejoin:miter;stroke-miterlimit:4;stroke-opacity:1;stroke-dasharray:none" id="rect3001-7" width="7.712" height=".89" x="-14" y="6.555" transform="matrix(0,-1,1,0,0,0)"/><rect style="fill:#00f;fill-opacity:1;stroke:#f60;stroke-width:0;stroke-linecap:butt;stroke-linejoin:miter;stroke-miterlimit:4;stroke-opacity:1;stroke-dasharray:none" id="rect3001-4" width="6.288" height=".89" x="-14" y="9.081" transform="matrix(0,-1,1,0,0,0)"/><rect style="fill:#00f;fill-opacity:1;stroke:#f60;stroke-width:0;stroke-linecap:butt;stroke-linejoin:miter;stroke-miterlimit:4;stroke-opacity:1;stroke-dasharray:none" id="rect3001-0" width="11.924" height=".89" x="-14" y="11.608" transform="matrix(0,-1,1,0,0,0)"/><rect style="fill:none;stroke:red;stroke-width:.53350627;stroke-linecap:butt;stroke-linejoin:miter;stroke-miterlimit:4;stroke-opacity:1;stroke-dasharray:.53350631,.53350631;stroke-dashoffset:0" id="rect3001-9" width="12.327" height=".463" x=".925" y="8.489"/></svg>