<svg xmlns="http://www.w3.org/2000/svg" xmlns:svg="http://www.w3.org/2000/svg" id="svg2" width="100%" height="100%" aria-hidden="true" focusable="false" role="img" version="1.1" viewBox="0 0 14 14"><metadata id="metadata12"/><path id="path6" d="M 10.618644,8.5459999 V 5.4539998 c 0.2905,-0.1035 0.5,-0.378 0.5,-0.7039997 0,-0.4139999 -0.336,-0.75 -0.75,-0.75 -0.326,0 -0.6004999,0.2094995 -0.7039999,0.4999998 h -5.092 c -0.1035,-0.2905004 -0.378,-0.4999998 -0.704,-0.4999998 -0.414,0 -0.75,0.3360001 -0.75,0.75 0,0.3259997 0.2095,0.6004998 0.5,0.7039997 v 3.0920001 c -0.2905,0.1035 -0.5,0.378 -0.5,0.704 0,0.414 0.336,0.75 0.75,0.75 0.326,0 0.6005,-0.2095 0.704,-0.500001 h 5.092 c 0.1035,0.290501 0.3779999,0.500001 0.7039999,0.500001 0.414,0 0.75,-0.336 0.75,-0.75 0,-0.326 -0.2095,-0.6005 -0.5,-0.704 z m -0.9539999,0.454 h -5.092 c -0.075,-0.212 -0.242,-0.3785 -0.454,-0.454 V 5.4539998 c 0.212,-0.075497 0.3785,-0.2419997 0.454,-0.4540003 h 5.092 c 0.0755,0.2120006 0.242,0.3785006 0.4539999,0.4540003 v 3.0920001 c -0.2119999,0.0755 -0.3789999,0.242 -0.4539999,0.454 z" style="fill:gray"/><g id="g10" transform="translate(7.740698,-1036.7363)"><circle id="circle2" cx="1.78" cy="1046.435" r="2.927" fill="#f44336"/><g id="g8" fill="#fff"><path id="path4" d="m 3.334781,1047.3665 -0.6207805,0.6208 -2.48312193,-2.4831 0.6207805,-0.6208 z"/><path id="path6-2" d="m 0.8493176,1047.9896 -0.6207805,-0.6207 2.483122,-2.4832 0.6207805,0.6208 z"/></g></g></svg>