<svg xmlns="http://www.w3.org/2000/svg" xmlns:svg="http://www.w3.org/2000/svg" id="svg2" width="100%" height="100%" aria-hidden="true" focusable="false" role="img" version="1.1" viewBox="0 0 14 14"><metadata id="metadata18"/><g transform="matrix(0,1.737288,1.737288,0,-9.5902704,-10.492942)" style="fill:gray" id="g4"><path id="path6" d="M 10.068624,9.3739123 V 6.0958635 l 2.04878,1.6390244 z" style="fill:gray"/><path id="path8" d="m 10.068624,7.149522 c 0.0878,0 0.204878,0 0.292683,0.029268 v 1.1707318 c -0.0878,-0.029268 -0.204878,-0.029268 -0.292683,-0.029268 -0.965854,0 -1.7560979,0.7902439 -1.7560979,1.7560972 0,0.965854 0.7902439,1.756098 1.7560979,1.756098 0.965853,0 1.756097,-0.790244 1.756097,-1.756098 0,-0.087805 -0.0044,0.560368 -0.0058,-0.07591 l 1.170905,-0.00509 c 0.01017,0.00465 0.0056,-0.2994875 0.0056,0.081 0,1.609756 -1.317073,2.92683 -2.926829,2.92683 -1.6097565,0 -2.9268296,-1.317074 -2.9268296,-2.92683 0,-1.6097558 1.3170732,-2.926829 2.9268296,-2.926829 z" style="fill:gray"/></g></svg>