<svg xmlns="http://www.w3.org/2000/svg" xmlns:svg="http://www.w3.org/2000/svg" id="svg2" width="100%" height="100%" aria-hidden="true" focusable="false" role="img" version="1.1" viewBox="0 0 14 14"><metadata id="metadata12"/><rect style="fill:#e6e6e6;fill-opacity:1;stroke:none;stroke-width:2.16728;stroke-opacity:1" id="rect10749-5" width="10.777" height="10.788" x="1.959" y="1.733" transform="matrix(1,0,-0.04725952,0.99888264,0,0)"/><rect style="fill:#696969;fill-opacity:.817241;stroke-width:.554673" id="rect28089" width=".653" height="10.51" x="6.756" y="1.832"/><rect style="fill:#696969;fill-opacity:.817241;stroke-width:.554673" id="rect28089-7" width=".653" height="10.51" x="6.597" y="-12.337" transform="rotate(90)"/><path style="fill:none;fill-opacity:.817241;stroke:#ff5dcd;stroke-width:.554673;stroke-opacity:1" id="path32265" d="m 2.2845636,11.231694 c 0,0.130555 2.0888542,-0.78332 2.0888542,-0.78332 L 5.6789515,8.75118 7.1803163,5.2262377 8.8122332,3.5290434 11.488578,2.745723"/><circle id="circle20-2" cx="8.799" cy="3.564" r=".804" style="fill:#0073a7;stroke-width:.268064;fill-opacity:1"/><circle id="circle22-3" cx="7.157" cy="5.21" r=".804" style="fill:#0073a7;stroke-width:.268064;fill-opacity:1"/><circle id="circle24-6" cx="5.712" cy="8.816" r=".804" style="fill:#0073a7;stroke-width:.268064;fill-opacity:1"/><circle id="circle26-0" cx="4.331" cy="10.418" r=".804" style="fill:#0073a7;stroke-width:.268064;fill-opacity:1"/><circle id="circle28-1" cx="2.298" cy="11.248" r=".804" style="fill:#0073a7;stroke-width:.268064;fill-opacity:1"/><circle id="circle28-1-2" cx="11.423" cy="2.811" r=".804" style="fill:#0073a7;stroke-width:.268064;fill-opacity:1"/><path id="path6" d="M 11.805084,6.1731185 V 3.0811184 c 0.2905,-0.1035 0.5,-0.378 0.5,-0.7039997 0,-0.4139999 -0.336,-0.75 -0.75,-0.75 -0.326,0 -0.6005,0.2094995 -0.704,0.4999998 H 5.7590843 c -0.1035,-0.2905004 -0.378,-0.4999998 -0.704,-0.4999998 -0.414,0 -0.75,0.3360001 -0.75,0.75 0,0.3259997 0.2095,0.6004998 0.5,0.7039997 v 3.0920001 c -0.2905,0.1035 -0.5,0.378 -0.5,0.704 0,0.414 0.336,0.75 0.75,0.75 0.326,0 0.6005,-0.2095 0.704,-0.500001 h 5.0919997 c 0.1035,0.290501 0.378,0.500001 0.704,0.500001 0.414,0 0.75,-0.336 0.75,-0.75 0,-0.326 -0.2095,-0.6005 -0.5,-0.704 z m -0.954,0.454 H 5.7590843 c -0.075,-0.212 -0.242,-0.3785 -0.454,-0.454 V 3.0811184 c 0.212,-0.075497 0.3785,-0.2419997 0.454,-0.4540003 h 5.0919997 c 0.0755,0.2120006 0.242,0.3785006 0.454,0.4540003 v 3.0920001 c -0.212,0.0755 -0.379,0.242 -0.454,0.454 z" style="fill:red"/></svg>