<svg xmlns="http://www.w3.org/2000/svg" xmlns:svg="http://www.w3.org/2000/svg" id="svg2" width="100%" height="100%" aria-hidden="true" focusable="false" role="img" version="1.1" viewBox="0 0 14 14"><metadata id="metadata12"/><rect style="fill:#e6e6e6;fill-opacity:1;stroke:none;stroke-width:2.16728;stroke-opacity:1" id="rect10749-5" width="10.777" height="10.788" x="2.016" y="1.903" transform="matrix(1,0,-0.04725952,0.99888264,0,0)"/><rect style="fill:#696969;fill-opacity:.817241;stroke-width:.554673" id="rect28089" width=".653" height="10.51" x="6.804" y="2.002"/><rect style="fill:#696969;fill-opacity:.817241;stroke-width:.554673" id="rect28089-7" width=".653" height="10.51" x="6.767" y="-12.386" transform="rotate(90)"/><path style="fill:none;fill-opacity:.817241;stroke:#ff5dcd;stroke-width:.554673;stroke-opacity:1" id="path32265" d="m 2.3329477,11.402075 c 0,0.130555 2.088854,-0.78332 2.088854,-0.78332 L 5.7273357,8.9215613 7.2286997,5.396619 8.8606167,3.6994247 11.536962,2.9161043"/><circle id="circle20-2" cx="8.847" cy="3.734" r=".804" style="fill:#0073a7;fill-opacity:1;stroke-width:.268064"/><circle id="circle22-3" cx="7.206" cy="5.38" r=".804" style="fill:#0073a7;fill-opacity:1;stroke-width:.268064"/><circle id="circle24-6" cx="5.76" cy="8.987" r=".804" style="fill:#0073a7;fill-opacity:1;stroke-width:.268064"/><circle id="circle26-0" cx="4.38" cy="10.588" r=".804" style="fill:#0073a7;fill-opacity:1;stroke-width:.268064"/><circle id="circle28-1" cx="2.346" cy="11.419" r=".804" style="fill:#0073a7;fill-opacity:1;stroke-width:.268064"/><circle id="circle28-1-2" cx="11.472" cy="2.981" r=".804" style="fill:#0073a7;fill-opacity:1;stroke-width:.268064"/><path id="path6" d="M 11.853468,6.3434998 V 3.2514997 c 0.2905,-0.1035 0.5,-0.378 0.5,-0.7039997 0,-0.4139999 -0.336,-0.75 -0.75,-0.75 -0.326,0 -0.6005,0.2094995 -0.704,0.4999998 H 5.8074677 c -0.1035,-0.2905004 -0.378,-0.4999998 -0.704,-0.4999998 -0.414,0 -0.75,0.3360001 -0.75,0.75 0,0.3259997 0.2095,0.6004998 0.5,0.7039997 v 3.0920001 c -0.2905,0.1035 -0.5,0.378 -0.5,0.704 0,0.414 0.336,0.75 0.75,0.75 0.326,0 0.6005,-0.2095 0.704,-0.500001 h 5.0920003 c 0.1035,0.290501 0.378,0.500001 0.704,0.500001 0.414,0 0.75,-0.336 0.75,-0.75 0,-0.326 -0.2095,-0.6005 -0.5,-0.704 z m -0.954,0.454 H 5.8074677 c -0.075,-0.212 -0.242,-0.3785 -0.454,-0.454 V 3.2514997 c 0.212,-0.075497 0.3785,-0.2419997 0.454,-0.4540003 h 5.0920003 c 0.0755,0.2120006 0.242,0.3785006 0.454,0.4540003 v 3.0920001 c -0.212,0.0755 -0.379,0.242 -0.454,0.454 z" style="fill:red"/><path style="fill:#ff0;fill-opacity:1;stroke:#f60;stroke-width:.367221;stroke-linecap:butt;stroke-linejoin:miter;stroke-miterlimit:4;stroke-dasharray:none;stroke-opacity:1" id="rect3031" d="M 9.67808,7.8870008 V 9.7358231 H 7.827679 V 11.620108 H 9.67808 v 1.848823 h 1.881126 v -1.848823 h 1.850403 V 9.7358231 H 11.559206 V 7.8870008 Z"/></svg>