<svg xmlns="http://www.w3.org/2000/svg" xmlns:svg="http://www.w3.org/2000/svg" id="svg2" width="100%" height="100%" aria-hidden="true" focusable="false" role="img" version="1.1" viewBox="0 0 14 14"><metadata id="metadata36"/><rect style="fill:#e6e6e6;fill-opacity:1;stroke:none;stroke-width:2.0957;stroke-opacity:1" id="rect10749-5" width="10.421" height="10.432" x="2.358" y="1.792" transform="matrix(1,0,-0.04725952,0.99888264,0,0)"/><rect style="fill:#696969;fill-opacity:.817241;stroke-width:.536351" id="rect28089" width=".631" height="10.162" x="6.991" y="1.888"/><rect style="fill:#696969;fill-opacity:.817241;stroke-width:.536351" id="rect28089-7" width=".631" height="10.162" x="6.496" y="-12.388" transform="rotate(90)"/><path style="fill:none;fill-opacity:.817241;stroke:red;stroke-width:.536351;stroke-opacity:1" id="path32265" d="m 2.6670239,10.977197 c 0,0.126243 2.0198612,-0.757447 2.0198612,-0.757447 L 5.9492973,8.5786137 7.401071,5.1700996 8.9790876,3.5289632 11.567034,2.7715157"/><circle id="circle20-2" cx="8.966" cy="3.563" r=".778" style="fill:#f55;stroke-width:.25921"/><circle id="circle22-3" cx="7.379" cy="5.154" r=".778" style="fill:#f55;stroke-width:.25921"/><circle id="circle24-6" cx="5.981" cy="8.642" r=".778" style="fill:#f55;stroke-width:.25921"/><circle id="circle26-0" cx="4.646" cy="10.19" r=".778" style="fill:#f55;stroke-width:.25921"/><circle id="circle28-1" cx="2.68" cy="10.993" r=".778" style="fill:#f55;stroke-width:.25921"/><circle id="circle28-1-2" cx="11.504" cy="2.835" r=".778" style="fill:#f55;stroke-width:.25921"/><path style="fill:#ff0;fill-opacity:1;stroke:#f60;stroke-width:.43679434;stroke-linecap:butt;stroke-linejoin:miter;stroke-miterlimit:4;stroke-opacity:1;stroke-dasharray:none" id="rect3031" d="m 8.5963008,6.4700627 0,2.1990978 -2.200976,0 0,2.2412805 2.200976,0 0,2.199098 2.2375212,0 0,-2.199098 2.200978,0 0,-2.2412805 -2.200978,0 0,-2.1990978 -2.2375212,0 z"/></svg>